<?xml version="1.0" encoding="UTF-8"?>
<svg xmlns="http://www.w3.org/2000/svg" viewBox="0 0 1200 630" width="1200" height="630">
  <defs>
    <linearGradient id="g35959" x1="77.95964517353734%" y1="8.548121372247913%" x2="22.040354826462664%" y2="91.45187862775208%">
      <stop offset="0%" stop-color="#8B5CF6"/>
      <stop offset="100%" stop-color="#7C3AED"/>
    </linearGradient>
  </defs>
  <rect width="1200" height="630" fill="url(#g35959)"/>
  <polygon points="138.10491326265037,250 258.10491326265037,190 378.10491326265037,250" fill="rgba(255,255,255,0.06)" stroke="rgba(255,255,255,0.12)" stroke-width="2"/><rect x="152.10491326265037" y="250" width="12" height="150" fill="rgba(255,255,255,0.08)"/><rect x="202.10491326265037" y="250" width="12" height="150" fill="rgba(255,255,255,0.08)"/><rect x="252.10491326265037" y="250" width="12" height="150" fill="rgba(255,255,255,0.08)"/><rect x="302.10491326265037" y="250" width="12" height="150" fill="rgba(255,255,255,0.08)"/><rect x="352.10491326265037" y="250" width="12" height="150" fill="rgba(255,255,255,0.08)"/><rect x="128.10491326265037" y="400" width="260" height="12" rx="2" fill="rgba(255,255,255,0.1)"/><path d="M 973.4217766672373 201.54869925230742 L 1018.4217766672373 221.54869925230742 L 1018.4217766672373 261.5486992523074 C 1018.4217766672373 291.5486992523074 973.4217766672373 311.5486992523074 973.4217766672373 311.5486992523074 C 973.4217766672373 311.5486992523074 928.4217766672373 291.5486992523074 928.4217766672373 261.5486992523074 L 928.4217766672373 221.54869925230742 Z" fill="rgba(255,255,255,0.06)" stroke="rgba(255,255,255,0.15)" stroke-width="2"/><text x="1014.7691332036629" y="102.72639277391136" font-family="sans-serif" font-size="28.74427428841591" fill="rgba(255,255,255,0.16129515470936895)">★</text><text x="845.2088260324672" y="156.2297307793051" font-family="sans-serif" font-size="30.348209146410227" fill="rgba(255,255,255,0.1048968844069168)">★</text><text x="1076.8695776583627" y="118.65425570867956" font-family="sans-serif" font-size="20.33116674888879" fill="rgba(255,255,255,0.12267811495810747)">★</text><text x="881.0780747095123" y="134.66818181797862" font-family="sans-serif" font-size="25.622793891467154" fill="rgba(255,255,255,0.14273766763042658)">★</text><text x="750.7845352170989" y="150.24316822178662" font-family="sans-serif" font-size="34.229158064350486" fill="rgba(255,255,255,0.13740410755388438)">★</text>
  <circle cx="925.4220611415803" cy="586.4324367418885" r="2.5184679930098355" fill="rgba(255,255,255,0.03789296616567299)"/><circle cx="603.3161982893944" cy="457.381637734361" r="1.9331833086907864" fill="rgba(255,255,255,0.07542692962568254)"/><circle cx="146.51785483583808" cy="59.279375227633864" r="1.526360412593931" fill="rgba(255,255,255,0.07684925681212917)"/><circle cx="870.6492388620973" cy="211.80708796251565" r="2.535823589656502" fill="rgba(255,255,255,0.03679905817378312)"/><circle cx="640.5553752556443" cy="455.3711799206212" r="2.6251462674699724" fill="rgba(255,255,255,0.030177049299236387)"/><circle cx="1010.6914758682251" cy="511.3391303876415" r="1.9511417397297919" fill="rgba(255,255,255,0.054980015365872534)"/><circle cx="6.97097796946764" cy="469.3615837977268" r="2.0332429609261453" fill="rgba(255,255,255,0.054562895309645684)"/><circle cx="824.302430357784" cy="23.9481969201006" r="1.4332233164459467" fill="rgba(255,255,255,0.042947121378965676)"/><circle cx="458.98471288383007" cy="2.6264715171419084" r="1.7109318529255688" fill="rgba(255,255,255,0.039026690165046604)"/><circle cx="658.54547386989" cy="531.2412455189042" r="1.3756394893862307" fill="rgba(255,255,255,0.053719578923191874)"/><circle cx="162.01564706861973" cy="342.89694084087387" r="1.1793282800354064" fill="rgba(255,255,255,0.030962518982123582)"/><circle cx="64.95207510888577" cy="369.6014103619382" r="1.6468420149758458" fill="rgba(255,255,255,0.06270090849837288)"/><circle cx="1158.8869616389275" cy="544.5046823867597" r="1.5528524783439934" fill="rgba(255,255,255,0.0676230639172718)"/><circle cx="483.6851282045245" cy="168.30977926030755" r="1.671974397264421" fill="rgba(255,255,255,0.03777898912783712)"/><circle cx="1011.4623153582215" cy="598.5637306398712" r="2.4139128769747913" fill="rgba(255,255,255,0.037468058390077205)"/><circle cx="20.121204759925604" cy="410.03377843648195" r="1.666890177410096" fill="rgba(255,255,255,0.03644943560473621)"/><circle cx="883.5760242305696" cy="446.8780983053148" r="2.784746916498989" fill="rgba(255,255,255,0.04875767608871684)"/><circle cx="725.4931792616844" cy="393.9224008494057" r="1.333482057787478" fill="rgba(255,255,255,0.030873961951583623)"/><circle cx="868.1808292865753" cy="416.1661046091467" r="1.9439476146362722" fill="rgba(255,255,255,0.0455172735452652)"/><circle cx="783.2293619401753" cy="549.6462024352513" r="2.9677129928022623" fill="rgba(255,255,255,0.045397058601956815)"/>
  <text x="600" y="335" font-family="system-ui, -apple-system, 'Segoe UI', sans-serif" font-size="68" font-weight="700" fill="rgba(0,0,0,0.15)" text-anchor="middle" letter-spacing="1">CSIR Net</text>
  <text x="600" y="332" font-family="system-ui, -apple-system, 'Segoe UI', sans-serif" font-size="68" font-weight="700" fill="white" text-anchor="middle" letter-spacing="1">CSIR Net</text>
  <g transform="translate(1140, 575)">
    <rect x="0" y="0" width="40" height="40" rx="8" fill="rgba(255,255,255,0.15)"/>
    <text x="20" y="29" font-family="sans-serif" font-weight="bold" font-size="24" fill="rgba(255,255,255,0.6)" text-anchor="middle">K</text>
  </g>
</svg>